<svg xmlns="http://www.w3.org/2000/svg" width="25" height="25"><defs><linearGradient id="a" x1="50%" x2="50%" y1="50.001%" y2="-82.765%"><stop offset="0%" stop-color="#C8414D"/><stop offset="100%" stop-color="#8A0A1C"/></linearGradient><linearGradient id="b" x1="99.999%" x2="0%" y1="50%" y2="50%"><stop offset="0%" stop-color="#8A0A1C"/><stop offset="100%" stop-color="#C8414D"/></linearGradient><linearGradient id="c" x1="100%" x2="-7.177%" y1="6.375%" y2="78.991%"><stop offset="0%" stop-color="#C5AA57"/><stop offset="100%" stop-color="#C16426"/></linearGradient><linearGradient id="d" x1="100.001%" x2="0%" y1="50%" y2="50%"><stop offset="0%" stop-color="#8A0A1C"/><stop offset="100%" stop-color="#C8414D"/></linearGradient><linearGradient id="e" x1="345.489%" x2="-228.736%" y1="64.689%" y2="37.161%"><stop offset="0%" stop-color="#8A0A1C"/><stop offset="100%" stop-color="#C8414D"/></linearGradient></defs><g fill="none" fill-rule="evenodd"><path fill="#C19032" d="M19.717 8.139l-.535.334-.074.046-.962.602-.423.265-.2.124-.287.18-.023.015c.044.06.087.12.129.182l.024-.014.295-.166.205-.116.434-.245.989-.558.076-.043.55-.31.085-.048 3.994-2.255-.311-.473L19.8 8.087l-.083.052z"/><path fill="url(#a)" d="M18.51 17.317l3.77 2.83c.124-.161.245-.324.361-.49l-3.917-2.623c-.07.096-.141.19-.215.283" transform="translate(1)"/><path fill="#D1600E" d="M19.431 17.259a7.69 7.69 0 0 1-.917.966l.068.071 3.25 3.414a12.544 12.544 0 0 0 1.447-1.564l-3.77-2.829-.078-.058z"/><path fill="url(#b)" d="M16.836 17.973l.415.475.064.074 3.1 3.552c.141-.118.28-.24.418-.364l-3.251-3.414-.068-.07-.435-.458c-.08.07-.16.139-.243.205" transform="translate(1)"/><path fill="#C19032" d="M18.336 6.634l-.414.476-.057.066-.743.855-.328.376-.153.176-.222.256-.016.018a4.9 4.9 0 0 1 .19.164l.018-.018.233-.245.161-.17.344-.36.78-.822.06-.063.435-.456.067-.071 3.137-3.298-.436-.398L18.4 6.56l-.064.074z"/><path fill="#B07800" d="M16.214 18.854l.037.079.268.57.041.09 1.999 4.27a12.45 12.45 0 0 0 2.856-1.789l-3.1-3.552-.064-.074-.415-.475-.057-.066c-.474.38-1 .7-1.565.947"/><path fill="url(#c)" d="M9.37 19.5l.246-.58.034-.081.442-1.044.194-.458.092-.216.132-.311.001-.004a4.708 4.708 0 1 1 4.668-8.121l.014-.019.2-.272.14-.188.295-.4.673-.912.052-.07.374-.508.058-.078 2.799-3.792A12.394 12.394 0 0 0 12.449.057C5.574.057 0 5.631 0 12.507c0 5.114 3.084 9.507 7.493 11.423l1.839-4.34.038-.09z" transform="translate(1)"/><path fill="url(#d)" d="M14.497 17.923l.425 1.05.033.081.237.585.036.09 1.769 4.37c.19-.074.377-.153.562-.237l-1.999-4.27-.041-.088-.268-.571-.037-.08-.48-1.026a5.854 5.854 0 0 1-.237.096" transform="translate(1)"/><path fill="#624A2C" d="M16.192 19.639l-.237-.585-.033-.08-.425-1.051-.187-.462a5.283 5.283 0 0 1-1.86.337h-.04l.01.497.02 1.133.002.088.012.63.001.098.086 4.711a12.417 12.417 0 0 0 4.456-.856l-1.769-4.37-.036-.09z"/><path fill="url(#e)" d="M12.109 17.553l-.006.233-.012.498-.028 1.134-.002.087-.016.63-.002.098-.117 4.712c.174.007.348.01.523.01h.092l-.086-4.711-.002-.098-.011-.63-.002-.088-.02-1.133-.01-.498-.004-.234c-.096 0-.192-.004-.288-.01h-.01z" transform="translate(1)"/><path fill="#654B2B" d="M11.594 16.847l-.13.312-.09.216-.19.46-.436 1.047-.033.08-.242.583-.038.09-1.81 4.352c1.332.56 2.782.895 4.301.958l.117-4.712.002-.097.016-.631.002-.087.028-1.134.012-.498.006-.233.008-.34v-.01a4.68 4.68 0 0 1-1.52-.36l-.003.004z"/><path fill="#D29448" d="M10.473 19.545l.242-.583.033-.08.435-1.047.192-.46.09-.216.13-.312.001-.004a3.96 3.96 0 0 1-.085-.037l-.001.004-.132.311-.092.216-.194.458-.442 1.044-.034.08-.246.58-.038.09-1.839 4.341c.044.02.088.038.133.057l1.81-4.352.037-.09z"/></g></svg>