<svg xmlns="http://www.w3.org/2000/svg" width="25" height="25"><defs><linearGradient id="a" x1="7.681%" x2="125.24%" y1="3.54%" y2="132.54%"><stop offset="0%" stop-color="#E3D531"/><stop offset="100%" stop-color="#C4A600"/></linearGradient></defs><g fill="none" fill-rule="nonzero"><circle cx="12.502" cy="12.507" r="12.46" fill="url(#a)"/><g fill="#FFF"><path d="M19.447 2.535c.879.389.954 1.776.44 2.58-.666 1.035-3.008.734-2.656-1.319-.094-.031-.082-.069-.2.038-3.177 5.687-3.096 12.09-5.782 16.56-.559.771-1.048 1.136-1.752 1.537-.703.402-1.211.66-2.36.716-1.149.05-1.607-.446-1.607-.446-1.312-.847-.552-2.373.182-2.68.735-.308 1.212-.182 1.601-.006.395.175.835.872.835.872.458-1.174.653-1.814 1.149-3.716 2.008-8.286 2.912-15.524 10.15-14.136z"/><path d="M8.625 10.858h7.024a1.017 1.017 0 1 1 0 2.034H8.625a1.017 1.017 0 0 1-1.017-1.017 1.025 1.025 0 0 1 1.017-1.017zM9.529 7.544h7.024a1.017 1.017 0 1 1 0 2.034H9.53A1.017 1.017 0 0 1 8.512 8.56a1.025 1.025 0 0 1 1.017-1.017z"/></g></g></svg>