<svg xmlns="http://www.w3.org/2000/svg" width="25" height="25"><g fill="none" fill-rule="nonzero" transform="translate(.3 .5)"><circle cx="13.488" cy="11.744" r="2.988" fill="#57BEEA"/><path fill="#292929" d="M13.488 22.52c-5.952 0-10.777-4.824-10.777-10.776C2.711 5.793 7.536.968 13.488.968c5.951 0 10.776 4.825 10.776 10.776 0 5.952-4.825 10.777-10.776 10.777zm0-.542c5.652 0 10.233-4.582 10.233-10.234S19.14 1.511 13.488 1.511 3.254 6.092 3.254 11.744s4.582 10.234 10.234 10.234z"/><circle cx="18.756" cy="2.984" r="2.984" fill="#292929"/><circle cx="18.65" cy="21.167" r="2.984" fill="#292929"/><circle cx="2.984" cy="12.415" r="2.984" fill="#292929"/></g></svg>