<svg xmlns="http://www.w3.org/2000/svg" width="25" height="25"><defs><linearGradient id="a" x1="0%" x2="0%" y1="0%" y2="100%"><stop offset="0%" stop-color="#39ADFF"/><stop offset="100%" stop-color="#1B67DE"/></linearGradient></defs><path fill="url(#a)" fill-rule="nonzero" d="M12.494 24.988C5.597 24.988 0 19.39 0 12.494 0 5.597 5.597 0 12.494 0c3.448 0 6.576 1.4 8.835 3.658l-2.079 2.08a9.525 9.525 0 0 0-6.756-2.8 9.555 9.555 0 0 0-9.555 9.556 9.555 9.555 0 0 0 9.555 9.555c4.777 0 8.725-3.508 9.425-8.086h-9.425v-2.939h12.404c.06.488.09.979.09 1.47 0 6.896-5.598 12.494-12.494 12.494"/></svg>