<svg xmlns="http://www.w3.org/2000/svg" width="25" height="25"><g fill="none" fill-rule="nonzero"><path fill="#1A53F0" d="M12.5.065C5.628.065.065 5.628.065 12.5c0 6.872 5.563 12.435 12.435 12.435 6.872 0 12.435-5.563 12.435-12.435C24.935 5.628 19.372.065 12.5.065z"/><path fill="#FFF" d="M16.427 5.707a3.335 3.335 0 0 0-3.338 3.338 3.335 3.335 0 0 0 3.338 3.337 3.335 3.335 0 0 0 3.337-3.337 3.335 3.335 0 0 0-3.337-3.338zm0 5.667a2.335 2.335 0 0 1-2.33-2.33 2.335 2.335 0 0 1 2.33-2.33 2.335 2.335 0 0 1 2.33 2.33 2.335 2.335 0 0 1-2.33 2.33zm-7.12 1.453a3.335 3.335 0 0 0-3.338 3.338 3.335 3.335 0 0 0 3.337 3.338 3.335 3.335 0 0 0 3.338-3.338 3.335 3.335 0 0 0-3.338-3.338zm0 5.668a2.335 2.335 0 0 1-2.33-2.33 2.335 2.335 0 0 1 2.33-2.33 2.335 2.335 0 0 1 2.33 2.33 2.335 2.335 0 0 1-2.33 2.33zm3.337-11.78V5.707H9.306a3.312 3.312 0 0 0-3.272 2.67 3.343 3.343 0 0 0 6.034 2.552 3.345 3.345 0 0 0-.366-4.214h.942zm-3.338 4.66a2.335 2.335 0 0 1-2.33-2.33 2.335 2.335 0 0 1 2.33-2.33 2.335 2.335 0 0 1 2.33 2.33 2.335 2.335 0 0 1-2.33 2.33z"/></g></svg>