<svg xmlns="http://www.w3.org/2000/svg" width="25" height="25"><g fill="none" fill-rule="nonzero"><circle cx="16.04" cy="16.04" r="1" fill="#000"/><circle cx="8.96" cy="16.04" r="1" fill="#000"/><path fill="#1C1D26" d="M12.5 0C5.6 0 0 5.6 0 12.5S5.6 25 12.5 25 25 19.4 25 12.5 19.4 0 12.5 0M8.96 5.986a2.975 2.975 0 1 1 0 5.95 2.975 2.975 0 0 1 0-5.95m2.975 10.053a2.975 2.975 0 1 1-2.975-2.975 4.104 4.104 0 0 0 4.104-4.103 2.975 2.975 0 1 1 2.975 2.975 4.104 4.104 0 0 0-4.103 4.104m4.103 2.975a2.975 2.975 0 1 1 0-5.95 2.975 2.975 0 0 1 0 5.95"/><circle cx="16.04" cy="8.96" r="1" fill="#000"/><circle cx="8.96" cy="8.96" r="1" fill="#000"/></g></svg>