<svg xmlns="http://www.w3.org/2000/svg" xmlns:xlink="http://www.w3.org/1999/xlink" width="25" height="25"><defs><path id="a" d="M12.5 24.217C6.04 24.217.783 18.961.783 12.5.783 6.04 6.039.783 12.5.783c6.46 0 11.717 5.256 11.717 11.717 0 6.46-5.256 11.717-11.717 11.717"/></defs><g fill="none" fill-rule="evenodd"><mask id="b" fill="#fff"><use xlink:href="#a"/></mask><use fill="#0F100F" xlink:href="#a"/><path fill="#C4CACA" d="M14.356.783v.811l1.351-.492-1.35-.32" mask="url(#b)"/><path fill="#ACB6BA" d="M15.126 1.674h-.77l1.152-.5-.382.5" mask="url(#b)"/><path fill="#B7BFC3" d="M16.585 1.524l-1.459.078.382-.427.199-.073.878.422" mask="url(#b)"/><path fill="#B7BDBF" d="M13.346.66l-.05.529 1.06.405V.783L13.346.66" mask="url(#b)"/><path fill="#BCC2C4" d="M12.045.66l-.214.442 1.464.087.051-.53h-1.3" mask="url(#b)"/><path fill="#B5BEC3" d="M9.899.976l1.553.29.379-.164.214-.442L9.9.976" mask="url(#b)"/><path fill="#A8AFB1" d="M8.447 1.506c.004-.002.379.656.379.656l1.212-.988-.139-.198-1.452.53" mask="url(#b)"/><path fill="#9BA2A4" d="M10.417 1.733l-1.591.43 1.212-.989.379.56" mask="url(#b)"/><path fill="#B8BEBF" d="M11.452 1.266l.43.082-1.465.385-.38-.559L9.9.976l1.553.29" mask="url(#b)"/><path fill="#BEC3C4" d="M14.356 1.674h-1.01l-.291-.5.24.017 1.061.483" mask="url(#b)"/><path fill="#B5BABA" d="M11.452 1.268l.379-.166 1.224.073.291.427-1.465-.25-.429-.084" mask="url(#b)"/><path fill="#979C9B" d="M10.417 1.733l1.161.934.303-1.319-1.464.385" mask="url(#b)"/><path fill="#444545" d="M8.826 2.162L9.508 3.3l.909-1.566-1.591.43" mask="url(#b)"/><path fill="#818685" d="M11.578 2.667l-1.161.24V1.733l1.161.934" mask="url(#b)"/><path fill="#808686" d="M11.881 1.348l.518.385-.82.934.302-1.319" mask="url(#b)"/><path fill="#BBC1C4" d="M13.346 1.668l-.947.18-.518-.5 1.465.32" mask="url(#b)"/><path fill="#A3AAAD" d="M10.417 2.911l.473.256 1.724-.192-1.036-.308-1.161.244" mask="url(#b)"/><path fill="#B1B9BD" d="M13.346 1.594l-.152.5-.795-.288.947-.212" mask="url(#b)"/><path fill="#7F8485" d="M11.578 2.667l.821-.934.795.19-.58 1.047-1.036-.303" mask="url(#b)"/><path fill="#868D8D" d="M10.89 3.16l-1.345.846-.037-.707.909-.392.473.253" mask="url(#b)"/><path fill="#919493" d="M8.826 2.162L9.508 3.3l-1.01-.215.328-.922" mask="url(#b)"/><path fill="#909697" d="M9.545 4.006l-.947.088.91-.795.037.707" mask="url(#b)"/><path fill="#989C9C" d="M8.498 3.084l.1 1.01.91-.795-1.01-.215" mask="url(#b)"/><path fill="#535554" d="M10.89 3.16l.41.934 1.314-1.124-1.724.19" mask="url(#b)"/><path fill="#4C4F4F" d="M9.545 4.006l.493.43.852-1.276-1.345.846" mask="url(#b)"/><path fill="#2F3130" d="M11.3 4.094l-1.262.341.852-1.275.41.934" mask="url(#b)"/><path fill="#888E90" d="M13.346 1.594l1.01 1.187-.252.43-.91-1.288.152-.329" mask="url(#b)"/><path fill="#656767" d="M15.126 1.594l.581 1.25-1.35-.063-1.011-1.187h1.78" mask="url(#b)"/><path fill="#787D7D" d="M16.288 1.533l-.581 1.311-.58-1.25 1.161-.061" mask="url(#b)"/><path fill="#838C90" d="M17.386 2.189l-.48-.805-.618.149 1.098.656" mask="url(#b)"/><path fill="#ABAEAF" d="M15.707 2.844l1.086.954.114-.89-1.2-.064" mask="url(#b)"/><path fill="#B4BAB9" d="M16.288 1.533l1.098.656-.48.718-1.199-.063.581-1.311" mask="url(#b)"/><path fill="#717473" d="M13.194 1.923l.91 1.287-1.49-.24.58-1.048" mask="url(#b)"/><path fill="#A8AEB0" d="M15.707 2.844l-.199.477-1.404-.11.252-.43 1.351.063" mask="url(#b)"/><path fill="#9EA4A7" d="M16.793 3.797l-1.285-.476.199-.477 1.086.954" mask="url(#b)"/><path fill="#848A8B" d="M16.907 2.907l1.123.414-1.237.476.114-.89" mask="url(#b)"/><path fill="#83898A" d="M17.386 2.189l-.48.718 1.124.414-.644-1.132" mask="url(#b)"/><path fill="#969C9D" d="M8.498 3.084l-.884.076 1.212-.998-.329.922" mask="url(#b)"/><path fill="#858C8E" d="M8.447 1.506l.379.656-1.212.998-.076-1.427.909-.227" mask="url(#b)"/><path fill="#3A3D3C" d="M8.498 3.084l.1 1.01-.72.455-.264-1.39.884-.075" mask="url(#b)"/><path fill="#858A8A" d="M9.545 4.006l.493.43 1.111.858-1.604.543-1.098-.916.151-.827.947-.088" mask="url(#b)"/><path fill="#676A69" d="M11.3 4.094l-.151 1.2-1.111-.859 1.263-.34" mask="url(#b)"/><path fill="#727574" d="M12.614 2.97l.34.985-1.653.14 1.313-1.125" mask="url(#b)"/><path fill="#808483" d="M14.104 3.21l-1.15.745-.34-.985 1.49.24" mask="url(#b)"/><path fill="#656867" d="M15.508 3.32l-.382.875-1.022-.985 1.404.11" mask="url(#b)"/><path fill="#8B9191" d="M16.793 3.797l-.139.752-1.146-1.228 1.285.476" mask="url(#b)"/><path fill="#AFB4B5" d="M16.907 1.384l.846.475-.367.33-.48-.805" mask="url(#b)"/><path fill="#A2A8AB" d="M18.952 2.516l-.391.454-1.175-.781.367-.33 1.199.657" mask="url(#b)"/><path fill="#7A7F81" d="M18.03 3.32l.53-.35-1.174-.781.644 1.132" mask="url(#b)"/><path fill="#91979A" d="M7.538 1.733l.056 1.048-.978.063.922-1.11" mask="url(#b)"/><path fill="#AFB6BA" d="M7.614 3.16l-1.099.72-.505-.29.606-.746.978-.063.02.379" mask="url(#b)"/><path fill="#171818" d="M7.879 4.549c-.089.038-.707.442-.707.442L6.515 3.88l1.099-.72.265 1.389" mask="url(#b)"/><path fill="#545859" d="M8.447 4.921l-.568-.372.72-.455-.152.827" mask="url(#b)"/><path fill="#151615" d="M8.946 5.337l-1.534.752 1.035-1.168.499.416" mask="url(#b)"/><path fill="#353838" d="M7.879 4.549l.568.372L7.412 6.09l-.24-1.098.707-.442" mask="url(#b)"/><path fill="#676A69" d="M12.5 4.435l-1.351.859.152-1.2 1.199.341" mask="url(#b)"/><path fill="#979D9F" d="M12.955 3.955l1.224.884-1.679-.404-1.2-.34 1.655-.14" mask="url(#b)"/><path fill="#696C6A" d="M14.104 3.21l.075 1.63-1.224-.885 1.149-.745" mask="url(#b)"/><path fill="#5B5D5C" d="M16.654 4.549l-1.528-.354.382-.874 1.146 1.228" mask="url(#b)"/><path fill="#565958" d="M14.104 3.21l.075 1.63 1.414.454-.467-1.099-1.022-.985" mask="url(#b)"/><path fill="#7E8588" d="M18.56 2.97l-.53.35 1.15.27 1.275.605-.19-.612-1.313-1.067-.391.454" mask="url(#b)"/><path fill="#808687" d="M16.793 3.797c.088.057 1.654.6 1.654.6l-.417-1.076-1.237.476" mask="url(#b)"/><path fill="#767C7D" d="M16.654 4.549l1.376.505.417-.657-1.654-.6-.139.752" mask="url(#b)"/><path fill="#343736" d="M18.03 3.32l1.15.27 1.275.605-.796.796-1.212-.594-.417-1.076" mask="url(#b)"/><path fill="#92989A" d="M6.01 3.59l-1.237-.058 1.515-1.2 1.25-.599-.922 1.111-.606.745" mask="url(#b)"/><path fill="#474949" d="M6.515 3.88l-1.168.555-.574-.903 1.237.057.505.29" mask="url(#b)"/><path fill="#404242" d="M7.172 4.99L6.155 4.55l-.808-.114 1.168-.555.657 1.11" mask="url(#b)"/><path fill="#343736" d="M4.773 3.532l-.884 1.39 1.458-.487-.574-.903" mask="url(#b)"/><path fill="#939A9D" d="M5.48 4.99l-1.591-.069 1.458-.486.133.556" mask="url(#b)"/><path fill="#606567" d="M5.922 5.319L5.48 4.99l-.133-.556.808.114-.233.77" mask="url(#b)"/><path fill="#909494" d="M7.412 6.09l-1.49-.771.233-.77 1.017.442.24 1.098" mask="url(#b)"/><path fill="#0A0B09" d="M3.889 4.921c.025.158.151 1.168.151 1.168l1.307-.088-.183.303.758.505 1.49-.72-1.49-.77-.442-.328-1.591-.07" mask="url(#b)"/><path fill="#788084" d="M4.773 3.532l-.884 1.39h-.493l1.377-1.39" mask="url(#b)"/><path fill="#202223" d="M4.04 6.09l-.921-.102v-.783l.277-.284h.493L4.04 6.09" mask="url(#b)"/><path fill="#535859" d="M5.164 6.317l-.82.184-.304-.408L5.347 6l-.183.316" mask="url(#b)"/><path fill="#161716" d="M5.922 6.809L4.04 7.819l1.124-1.515.758.505" mask="url(#b)"/><path fill="#404446" d="M3.018 8.11l2.146-1.806L4.04 7.819l-1.022.29" mask="url(#b)"/><path fill="#2D2F30" d="M4.343 6.48l.821-.176-2.146 1.805.1-.902 1.225-.726" mask="url(#b)"/><path fill="#323534" d="M9.545 5.837l-1.047.808-1.086-.556 1.534-.752.6.5" mask="url(#b)"/><path fill="#151615" d="M11.149 5.294L12.29 6.48l1.561 1.06 1.54.695 1.156-.594.865 1.137-1.768 1.098-1.288-.972-.997-.164-.859-.77-1.502-1.023-1.453-1.111 1.604-.543" mask="url(#b)"/><path fill="#0A0B09" d="M12.5 4.435l.979 1.238h-1.093l-1.237-.38 1.351-.858" mask="url(#b)"/><path fill="#3F403F" d="M12.29 6.48l1.89.329-.701-1.136h-1.093l-1.237-.38 1.141 1.188" mask="url(#b)"/><path fill="#4D4F4F" d="M13.851 7.541l.328-.732-1.889-.328 1.561 1.06" mask="url(#b)"/><path fill="#373939" d="M12.5 4.435l1.68.404-.701.833-.979-1.237" mask="url(#b)"/><path fill="#9DA2A3" d="M15.593 5.294l1.2.379-1.389.164-1.225-.998 1.414.455" mask="url(#b)"/><path fill="#393C3B" d="M9.95 6.809l-.405-.972-1.047.808 1.451.164" mask="url(#b)"/><path fill="#595B5A" d="M12.5 7.97l-1.351.14-1.2-1.301-.404-.972 1.453 1.11L12.5 7.97" mask="url(#b)"/><path fill="#4B4E4E" d="M8.498 6.645l-1.479.328-1.097-.164 1.49-.72 1.086.556" mask="url(#b)"/><path fill="#242625" d="M8.239 7.478l-1.22-.505 1.479-.328-.26.833" mask="url(#b)"/><path fill="#0A0B09" d="M11.149 8.11l-1.351.315-1.56-.947.26-.833 1.451.164 1.2 1.3" mask="url(#b)"/><path fill="#282A29" d="M7.02 6.973l-1.603.612-1.377.234 1.882-1.01 1.097.164" mask="url(#b)"/><path fill="#373A3B" d="M3.119 7.207l-.265-.398 1.186-.72.303.392-1.224.726" mask="url(#b)"/><path fill="#44494A" d="M3.119 5.988l-.265.82L4.04 6.09l-.921-.1" mask="url(#b)"/><path fill="#454A4C" d="M3.119 5.205v.783l-.265.82-1.238 1.01.682-1.577.82-1.036" mask="url(#b)"/><path fill="#1B1E1E" d="M3.018 8.11l-.65.15-.527-.625 1.013-.826.265.398-.101.902" mask="url(#b)"/><path fill="#0F100F" d="M5.417 7.585L4.52 8.816l-1.124.707L1.97 9.7l-.19-.492-.669-.227.505-1.162.225-.184.526.626.65-.152 1.023-.29 1.377-.234M7.02 6.973l.442.934-.65.973 1.067.454.72-.29 1.08 1.022 1.04-.732-.921-.909-1.56-.947-1.219-.505" mask="url(#b)"/><path fill="#1E211F" d="M5.417 7.585L6.812 8.88l.65-.973-.443-.934-1.602.612" mask="url(#b)"/><path fill="#282B2C" d="M3.396 9.523l.581.543 1.25-1.477.19-1.004-.897 1.231-1.124.707" mask="url(#b)"/><path fill="#121413" d="M2.652 9.616l-.973 1.208.619.644.556-.354.542-1.59-.744.092" mask="url(#b)"/><path fill="#242727" d="M1.111 8.98c-.006.038-.278.84-.278.84l.846 1.004.973-1.208-.682.084-.19-.492-.669-.227" mask="url(#b)"/><path fill="#434545" d="M5.417 7.585l-.19 1.004 1.032-.222-.842-.782" mask="url(#b)"/><path fill="#363937" d="M6.812 8.88L5.75 10.227 5.227 8.59l1.032-.222.553.513" mask="url(#b)"/><path fill="#262827" d="M7.377 10.496l-1.626-.269L6.81 8.88l.566 1.616" mask="url(#b)"/><path fill="#161716" d="M8.598 9.044c.01.085.086 1.452.086 1.452H7.377L6.812 8.88l1.067.454.72-.29" mask="url(#b)"/><path fill="#1C1E1D" d="M9.68 10.066l-.996.43-.086-1.452 1.081 1.022" mask="url(#b)"/><path fill="#333534" d="M11.149 8.11l1.165 1.284-1.594-.06-.922-.909 1.351-.316" mask="url(#b)"/><path fill="#333534" d="M15.644 9.877l-1.58-.229-1.75-.254-1.165-1.285L12.5 7.97l.859.77.997.165 1.288.972" mask="url(#b)"/><path fill="#222423" d="M13.067 10.91l.997-1.262.633.63-1.63.631" mask="url(#b)"/><path fill="#404140" d="M15.644 9.877l-.947.402-.633-.631 1.58.229" mask="url(#b)"/><path fill="#161817" d="M16.547 7.642l-1.156.594-1.54-.695.328-.732.947-.104 1.42.937" mask="url(#b)"/><path fill="#191B1A" d="M15.404 5.837l-.278.868-1.647-1.032 1.925.164" mask="url(#b)"/><path fill="#606261" d="M14.18 6.809l-.701-1.136 1.647 1.032-.947.104" mask="url(#b)"/><path fill="#8F9394" d="M14.18 4.84l1.224.997-1.925-.164.7-.834" mask="url(#b)"/><path fill="#6A6C6B" d="M18.03 5.054l-.35.619h-.887l-1.2-.38-.467-1.098 1.528.354 1.376.505" mask="url(#b)"/><path fill="#0A0B09" d="M20.265 3.583l1.61 1.55-.7-.08-.645.285-.87.903-.708-.303.46-.884.247-.063.796-.796-.19-.612" mask="url(#b)"/><path fill="#5F6363" d="M18.03 5.054l.922.884.46-.884.247-.063-1.212-.594-.417.657" mask="url(#b)"/><path fill="#131513" d="M15.126 6.705l1.597.19 1.25-.25.057-1.591-.35.619h-.887l-1.389.164-.278.868" mask="url(#b)"/><path fill="#484A49" d="M16.547 7.642l.176-.748-1.597-.19 1.42.938" mask="url(#b)"/><path fill="#282B2C" d="M19.66 6.24l-.503.654-.205-.956.707.303" mask="url(#b)"/><path fill="#7C807F" d="M20.53 5.338l.38.713-.38.922-1.373-.079.502-.653.871-.903" mask="url(#b)"/><path fill="#4B4E4D" d="M18.03 5.054l.922.884.205.956-.937.748h-1.673l.176-.748 1.25-.25.057-1.59" mask="url(#b)"/><path fill="#666A6B" d="M21.875 5.133l.483.704-1.449.214-.379-.713.644-.284.701.079" mask="url(#b)"/><path fill="#242626" d="M20.53 6.973l1.08.271-.7-1.193-.38.922" mask="url(#b)"/><path fill="#161716" d="M18.22 7.642l-.808 1.137-.865-1.137h1.673" mask="url(#b)"/><path fill="#0F100F" d="M21.61 7.244c.01.076.55 1.535.55 1.535l-1.63-.455-1.136-.492-.73.593s-.757 1.3-.757 1.272c0-.028-.495-.918-.495-.918l.808-1.137.937-.748 1.373.079 1.08.271" mask="url(#b)"/><path fill="#242625" d="M19.953 9.48l-1.288-1.055.729-.593 1.136.492-.34.101-.237 1.054" mask="url(#b)"/><path fill="#3D3F3F" d="M22.16 8.779l.851.814-.208.966-.7-1.08-1.648-.208.222-.906 1.482.414" mask="url(#b)"/><path fill="#0F100E" d="M19.953 9.48l.502-.209.222-.906-.147-.041-.34.101-.237 1.054" mask="url(#b)"/><path fill="#444849" d="M22.358 5.837l.379.726-.767.824.19 1.392-.55-1.535-.7-1.193 1.448-.214" mask="url(#b)"/><path fill="#121413" d="M23.011 9.593l-.274-1.581-.578.767.852.814" mask="url(#b)"/><path fill="#515454" d="M22.737 6.563v1.449l-.578.767-.19-1.392.768-.824" mask="url(#b)"/><path fill="#343738" d="M23.778 8.545l-.944.025-.097-.558v-1.45l.776 1.08.265.903" mask="url(#b)"/><path fill="#2C2E2E" d="M19.953 9.48l-.168.799-1.026-.631 1.194-.169" mask="url(#b)"/><path fill="#4C4F4F" d="M10.417 2.907l-.91.392.91-1.566v1.174" mask="url(#b)"/></g></svg>